<svg width="40" height="40" viewBox="0 0 40 40" fill="none" xmlns="http://www.w3.org/2000/svg">
<circle cx="20" cy="20" r="20" fill="#E8A94C"/>
<path d="M12.7422 33C12.7422 33 13.3794 27.0173 17.8401 21.6993M28.2017 10.7203L28.9588 18.9299C29.4354 24.0964 25.7216 28.6964 20.7702 29.1937C15.9106 29.6816 11.5085 25.9763 11.0407 20.9069C10.816 18.4725 11.5275 16.0447 13.0187 14.1575C14.5099 12.2704 16.6586 11.0784 18.9923 10.8439L27.3669 10.0037C27.467 9.99362 27.5679 10.0042 27.664 10.0348C27.7601 10.0654 27.8494 10.1155 27.927 10.1822C28.0045 10.2489 28.0687 10.3308 28.1158 10.4234C28.1629 10.516 28.1921 10.616 28.2017 10.7203Z" stroke="black" stroke-width="1.5" stroke-linecap="round" stroke-linejoin="round"/>
</svg>
