<svg width="46" height="46" viewBox="0 0 46 46" fill="none" xmlns="http://www.w3.org/2000/svg">
<path d="M24.75 16.75C24.75 16.75 26.75 12.75 26.75 8.75C26.75 4.75 22.75 0.75 22.75 0.75C22.75 0.75 18.75 4.75 18.75 8.75C18.75 12.75 20.75 16.75 20.75 16.75M22.75 28.75C24.3413 28.75 25.8674 28.1179 26.9926 26.9926C28.1179 25.8674 28.75 24.3413 28.75 22.75C28.75 21.1587 28.1179 19.6326 26.9926 18.5074C25.8674 17.3821 24.3413 16.75 22.75 16.75C21.1587 16.75 19.6326 17.3821 18.5074 18.5074C17.3821 19.6326 16.75 21.1587 16.75 22.75C16.75 24.3413 17.3821 25.8674 18.5074 26.9926C19.6326 28.1179 21.1587 28.75 22.75 28.75Z" stroke="white" stroke-width="1.5" stroke-miterlimit="1.5" stroke-linecap="round" stroke-linejoin="round"/>
<path d="M16.75 20.75C16.75 20.75 12.75 18.75 8.75 18.75C4.75 18.75 0.75 22.75 0.75 22.75C0.75 22.75 4.75 26.75 8.75 26.75C12.75 26.75 16.75 24.75 16.75 24.75M24.75 28.75C24.75 28.75 26.75 32.75 26.75 36.75C26.75 40.75 22.75 44.75 22.75 44.75C22.75 44.75 18.75 40.75 18.75 36.75C18.75 32.75 20.75 28.75 20.75 28.75M28.75 20.75C28.75 20.75 32.75 18.75 36.75 18.75C40.75 18.75 44.75 22.75 44.75 22.75C44.75 22.75 40.75 26.75 36.75 26.75C32.75 26.75 28.75 24.75 28.75 24.75M19.922 17.094C19.922 17.094 18.508 12.85 15.678 10.022C12.85 7.19397 7.194 7.19397 7.194 7.19397C7.194 7.19397 7.194 12.85 10.022 15.68C12.85 18.508 17.094 19.922 17.094 19.922M17.094 25.578C17.094 25.578 12.85 26.992 10.022 29.822C7.194 32.65 7.194 38.306 7.194 38.306C7.194 38.306 12.85 38.306 15.678 35.478C18.506 32.65 19.922 28.406 19.922 28.406M28.408 25.578C28.408 25.578 32.648 26.992 35.478 29.822C38.306 32.65 38.306 38.306 38.306 38.306C38.306 38.306 32.65 38.306 29.822 35.478C26.994 32.65 25.578 28.406 25.578 28.406M25.578 17.094C25.578 17.094 26.992 12.85 29.822 10.022C32.65 7.19397 38.306 7.19397 38.306 7.19397C38.306 7.19397 38.306 12.85 35.478 15.68C32.65 18.508 28.406 19.922 28.406 19.922" stroke="white" stroke-width="1.5" stroke-miterlimit="1.5" stroke-linecap="round" stroke-linejoin="round"/>
</svg>
