<svg width="40" height="40" viewBox="0 0 40 40" fill="none" xmlns="http://www.w3.org/2000/svg">
<path d="M21.6667 25C21.6667 25 23.3334 28.3333 23.3334 31.6667C23.3334 35 20.0001 38.3333 20.0001 38.3333C20.0001 38.3333 16.6667 35 16.6667 31.6667C16.6667 28.3333 18.3334 25 18.3334 25" stroke="black" stroke-width="1.5" stroke-miterlimit="1.5" stroke-linecap="round" stroke-linejoin="round"/>
<path d="M25 18.3334C25 18.3334 28.3333 16.6667 31.6667 16.6667C35 16.6667 38.3333 20.0001 38.3333 20.0001C38.3333 20.0001 35 23.3334 31.6667 23.3334C28.3333 23.3334 25 21.6667 25 21.6667" stroke="black" stroke-width="1.5" stroke-miterlimit="1.5" stroke-linecap="round" stroke-linejoin="round"/>
<path d="M19.9992 24.9993C22.7607 24.9993 24.9992 22.7608 24.9992 19.9993C24.9992 17.2379 22.7607 14.9993 19.9992 14.9993C17.2379 14.9993 14.9993 17.2379 14.9993 19.9993C14.9993 22.7608 17.2379 24.9993 19.9992 24.9993Z" stroke="black" stroke-width="1.5" stroke-miterlimit="1.5" stroke-linecap="round" stroke-linejoin="round"/>
<path d="M24.7142 22.3569C24.7142 22.3569 28.2497 23.5354 30.6067 25.8924C32.9637 28.2494 32.9637 32.9636 32.9637 32.9636C32.9637 32.9636 28.2497 32.9636 25.8927 30.6066C23.5357 28.2494 22.3572 24.7139 22.3572 24.7139" stroke="black" stroke-width="1.5" stroke-miterlimit="1.5" stroke-linecap="round" stroke-linejoin="round"/>
<path d="M15.0001 18.3334C15.0001 18.3334 11.6667 16.6667 8.33341 16.6667C5.00008 16.6667 1.66675 20.0001 1.66675 20.0001C1.66675 20.0001 5.00008 23.3334 8.33341 23.3334C11.6667 23.3334 15.0001 21.6667 15.0001 21.6667" stroke="black" stroke-width="1.5" stroke-miterlimit="1.5" stroke-linecap="round" stroke-linejoin="round"/>
<path d="M15.286 22.3569C15.286 22.3569 11.7504 23.5354 9.39341 25.8924C7.03638 28.2494 7.03638 32.9636 7.03638 32.9636C7.03638 32.9636 11.7504 32.9636 14.1074 30.6066C16.4645 28.2494 17.6429 24.7139 17.6429 24.7139" stroke="black" stroke-width="1.5" stroke-miterlimit="1.5" stroke-linecap="round" stroke-linejoin="round"/>
<path d="M21.6667 15.0001C21.6667 15.0001 23.3334 11.6667 23.3334 8.33341C23.3334 5.00008 20.0001 1.66675 20.0001 1.66675C20.0001 1.66675 16.6667 5.00008 16.6667 8.33341C16.6667 11.6667 18.3334 15.0001 18.3334 15.0001" stroke="black" stroke-width="1.5" stroke-miterlimit="1.5" stroke-linecap="round" stroke-linejoin="round"/>
<path d="M22.3569 15.2862C22.3569 15.2862 23.5354 11.7507 25.8924 9.39364C28.2494 7.03662 32.9636 7.03662 32.9636 7.03662C32.9636 7.03662 32.9636 11.7507 30.6066 14.1077C28.2494 16.4647 24.7139 17.6433 24.7139 17.6433" stroke="black" stroke-width="1.5" stroke-miterlimit="1.5" stroke-linecap="round" stroke-linejoin="round"/>
<path d="M17.643 15.2862C17.643 15.2862 16.4645 11.7507 14.1074 9.39364C11.7504 7.03662 7.03638 7.03662 7.03638 7.03662C7.03638 7.03662 7.03638 11.7507 9.39339 14.1077C11.7504 16.4647 15.286 17.6433 15.286 17.6433" stroke="black" stroke-width="1.5" stroke-miterlimit="1.5" stroke-linecap="round" stroke-linejoin="round"/>
</svg>
