<svg width="104" height="32" viewBox="0 0 104 32" fill="none" xmlns="http://www.w3.org/2000/svg">
<path d="M0 31.5493V1.95305H3.15493V31.5493H0Z" fill="black"/>
<path d="M8.93779 31.5493V6.76056H11.4918L11.8924 9.41471C12.1595 8.41315 12.7771 7.64528 13.7453 7.11111C14.7135 6.57695 15.715 6.30986 16.75 6.30986C18.5194 6.30986 19.8048 6.62702 20.606 7.26135C21.4407 7.86229 21.9748 8.66354 22.2085 9.6651C22.4422 10.6333 22.5591 11.7016 22.5591 12.8701V31.5493H19.4542V13.3208C19.4542 12.7199 19.4375 12.1356 19.4041 11.5681C19.3708 11.0005 19.2372 10.4997 19.0035 10.0657C18.8032 9.59833 18.4527 9.23109 17.9519 8.96401C17.4511 8.69692 16.7166 8.56338 15.7484 8.56338C14.9138 8.56338 14.2294 8.73031 13.6952 9.06416C13.1944 9.36463 12.8105 9.73187 12.5434 10.1659C12.3097 10.5665 12.1428 10.9504 12.0426 11.3177V31.5493H8.93779Z" fill="black"/>
<path d="M30.3271 31.5493V4.20658H25.3693V1.95305H38.5399V4.20658H33.482V31.5493H30.3271Z" fill="black"/>
<path d="M41.7527 31.5493V6.76056H44.3568L44.7074 9.41471C45.0746 8.47992 45.6755 7.81221 46.5102 7.41158C47.3448 7.01096 48.1794 6.76056 49.0141 6.66041C49.9489 6.46009 50.8503 6.4434 51.7183 6.61033V9.06416C51.5848 9.03078 51.3511 8.99739 51.0172 8.96401C50.6834 8.93062 50.3161 8.91393 49.9155 8.91393C49.5482 8.91393 49.1977 8.9807 48.8638 9.11424C47.7287 9.24778 46.7773 9.6651 46.0094 10.3662C45.2415 11.0339 44.8576 11.952 44.8576 13.1205V31.5493H41.7527Z" fill="black"/>
<path d="M60.829 32C59.1598 32 57.8076 31.8164 56.7727 31.4491C55.7377 31.0485 54.9866 30.3307 54.5192 29.2958C54.0518 28.2608 53.8181 26.7585 53.8181 24.7887V12.4194C53.8181 10.0824 54.3355 8.47992 55.3705 7.61189C56.4388 6.74387 58.1916 6.30986 60.6287 6.30986C62.9991 6.30986 64.7017 6.74387 65.7367 7.61189C66.805 8.47992 67.3392 10.0824 67.3392 12.4194V18.8294H56.9229V25.8404C56.9229 27.4429 57.1733 28.5613 57.6741 29.1956C58.1749 29.7966 59.1931 30.097 60.7289 30.097C62.1311 30.097 63.0659 29.7966 63.5333 29.1956C64.0006 28.5947 64.2343 27.4763 64.2343 25.8404V22.6354H67.3392V24.7387C67.3392 26.675 67.1055 28.1774 66.6381 29.2457C66.1707 30.2806 65.4529 30.9984 64.4847 31.3991C63.5499 31.7997 62.3314 32 60.829 32ZM56.9229 17.2269H64.2343V12.3192C64.2343 10.9171 64.0006 9.8988 63.5333 9.26448C63.0659 8.63015 62.0977 8.31299 60.6287 8.31299C59.1598 8.31299 58.1749 8.63015 57.6741 9.26448C57.1733 9.8988 56.9229 10.9171 56.9229 12.3192V17.2269Z" fill="black"/>
<path d="M71.7801 31.5493V6.76056H74.3341L74.7347 9.41471C75.0018 8.41315 75.6195 7.64528 76.5876 7.11111C77.5558 6.57695 78.5574 6.30986 79.5923 6.30986C81.3618 6.30986 82.6471 6.62702 83.4484 7.26135C84.283 7.86229 84.8172 8.66354 85.0509 9.6651C85.2846 10.6333 85.4014 11.7016 85.4014 12.8701V31.5493H82.2966V13.3208C82.2966 12.7199 82.2799 12.1356 82.2465 11.5681C82.2131 11.0005 82.0796 10.4997 81.8459 10.0657C81.6455 9.59833 81.295 9.23109 80.7942 8.96401C80.2934 8.69692 79.5589 8.56338 78.5908 8.56338C77.7561 8.56338 77.0717 8.73031 76.5376 9.06416C76.0368 9.36463 75.6528 9.73187 75.3858 10.1659C75.1521 10.5665 74.9851 10.9504 74.885 11.3177V31.5493H71.7801Z" fill="black"/>
<path d="M95.8235 31.9499C94.5883 31.9499 93.57 31.7997 92.7688 31.4992C91.9675 31.1654 91.3332 30.7147 90.8658 30.1471C90.4318 29.5462 90.1313 28.8117 89.9644 27.9437C89.7975 27.0423 89.714 26.024 89.714 24.8889V12.5196C89.714 11.6182 89.7975 10.8002 89.9644 10.0657C90.1647 9.29786 90.4819 8.64684 90.9159 8.11268C91.3499 7.54512 91.9341 7.11111 92.6686 6.81064C93.4031 6.47679 94.3379 6.30986 95.473 6.30986C96.8084 6.30986 97.8434 6.51017 98.5779 6.9108C99.3457 7.31143 99.8966 7.79552 100.23 8.36307V0H103.335V31.5493H101.182L100.881 29.1956C100.681 29.6296 100.381 30.0636 99.98 30.4977C99.6128 30.8983 99.0953 31.2488 98.4276 31.5493C97.7933 31.8164 96.9253 31.9499 95.8235 31.9499ZM96.3744 30.0469C97.3426 30.0469 98.0938 29.88 98.6279 29.5462C99.1621 29.1789 99.5293 28.7115 99.7297 28.144C99.9633 27.5764 100.097 26.9588 100.13 26.2911C100.197 25.59 100.23 24.9056 100.23 24.2379V10.6667C100.13 10.3662 99.9467 10.0323 99.6796 9.6651C99.4459 9.29786 99.0786 8.9807 98.5779 8.71361C98.0771 8.44653 97.3927 8.31299 96.5247 8.31299C95.5565 8.31299 94.822 8.44653 94.3212 8.71361C93.8204 8.9807 93.4532 9.34794 93.2195 9.81534C93.0192 10.2493 92.9023 10.7501 92.8689 11.3177C92.8356 11.8852 92.8189 12.4695 92.8189 13.0704V25.2895C92.8189 26.0908 92.8689 26.8586 92.9691 27.5931C93.0692 28.3276 93.3697 28.9285 93.8705 29.3959C94.3713 29.8299 95.2059 30.0469 96.3744 30.0469Z" fill="black"/>
</svg>
