<svg width="67" height="32" viewBox="0 0 67 32" fill="none" xmlns="http://www.w3.org/2000/svg">
<path d="M7.74775 32C6.31832 32 5.01502 31.7237 3.83784 31.1712C2.66066 30.6186 1.72372 29.8018 1.02703 28.7207C0.342342 27.6276 0 26.2883 0 24.7027V16.7568H6.27027V24.3243C6.27027 24.8769 6.37838 25.3213 6.59459 25.6577C6.82282 25.994 7.18318 26.1622 7.67568 26.1622C8.62463 26.1622 9.0991 25.5796 9.0991 24.4144V0H15.4955V23.7838C15.4955 25.4655 15.1652 26.9249 14.5045 28.1622C13.8438 29.3874 12.9309 30.3363 11.7658 31.009C10.6006 31.6697 9.26126 32 7.74775 32Z" fill="black"/>
<path d="M25.2793 32C22.6366 32 20.6907 31.2613 19.4414 29.7838C18.1922 28.2943 17.5676 26.1081 17.5676 23.2252V0H23.7297V22.973C23.7297 23.5015 23.7598 24.012 23.8198 24.5045C23.8799 24.985 24.018 25.3814 24.2342 25.6937C24.4505 26.006 24.7988 26.1622 25.2793 26.1622C25.7718 26.1622 26.1261 26.012 26.3423 25.7117C26.5586 25.3994 26.6907 24.997 26.7387 24.5045C26.7988 24.012 26.8288 23.5015 26.8288 22.973V0H32.991V23.2252C32.991 26.1081 32.3664 28.2943 31.1171 29.7838C29.8679 31.2613 27.9219 32 25.2793 32Z" fill="black"/>
<path d="M35.4234 31.7117V0H41.9459L44.8649 15.1892V0H50.991V31.7117H44.7928L41.6216 15.8559V31.7117H35.4234Z" fill="black"/>
<path d="M53.8018 31.7117V0H66.4865V6.12613H60.2523V12.3063H66.2342V18.2703H60.2523V25.5315H66.9009V31.7117H53.8018Z" fill="black"/>
</svg>
