<svg width="167" height="32" viewBox="0 0 167 32" fill="none" xmlns="http://www.w3.org/2000/svg">
<path d="M51.9416 19.7835C53.4244 23.7949 55.3115 28.6724 57.7379 31.9544H44.7075C44.7525 30.5413 44.3032 28.6268 43.719 26.5299L39.091 13.037C38.2822 10.849 37.5184 8.93447 36.7545 7.24786L26.9144 31.9088H25.6114L23.9489 28.9003V28.8547L15.0972 12.5356C13.929 10.6211 12.9405 8.88889 11.8621 7.15669L6.51517 25.2991C5.97598 27.5783 5.39186 30.0855 5.66146 31.9544L0 32C0.853712 30.4501 1.97702 27.4416 2.69593 25.2991L9.52563 3.78348C8.62698 2.59829 7.59354 1.36752 6.42531 0.0455829H18.7817C19.86 2.64388 20.8485 4.64957 22.0168 6.97436L28.5319 19.0085L35.3616 4.19373C34.463 2.41596 33.6542 1.04843 32.9802 0.0455829H45.3815C46.1454 3.69231 46.8643 5.97151 47.8079 8.66097L51.9416 19.7835Z" fill="black"/>
<path d="M61.3532 31.9544C63.9143 29.584 66.8349 25.4815 68.9018 22.245C72.6311 16.2735 76.3156 10.2564 80.045 4.23932C78.2027 2.41596 76.0011 0.820513 73.7095 0.273503V0.0455829H89.7952L101.837 18.6439L104.039 22.1083C106.33 25.7094 109.97 30.8604 111.812 31.9544H95.5466C96.4003 30.906 95.4118 28.3989 94.5131 26.5299L91.9969 22.2906H72.9007L69.8903 27.3504C68.9916 28.9915 68.5423 30.5413 69.1264 31.9544H61.3532ZM74.1139 20.1937H90.7388L84.673 10.0741C84.0889 9.16239 83.2351 7.88604 82.2017 6.60969L74.1139 20.1937Z" fill="black"/>
<path d="M155.535 22.7464C158.725 25.7094 162.994 29.4929 166.588 31.9544H164.656C164.521 31.9544 153.423 31.9544 150.323 31.9544H146.953C146.953 28.8547 141.381 22.9288 139.943 21.4701L136.753 18.2792L126.509 28.5812C125.34 29.9031 124.577 31.1795 124.846 31.9544H117.343C120.668 29.5385 123.319 27.3048 125.251 25.5727L134.641 16.0912L132.125 13.584C132.125 13.584 123.453 4.60399 116.758 0H135.944C135.944 2.18803 138.865 5.74359 141.067 8.11396L143.538 10.6211L145.335 12.4444L153.558 4.33049C155.175 2.68946 156.568 1.00285 156.254 0.0455829H163.758C159.938 2.82621 156.928 5.37892 154.861 7.24786L147.447 14.5869L155.535 22.7464Z" fill="black"/>
</svg>
