<svg width="133" height="32" viewBox="0 0 133 32" fill="none" xmlns="http://www.w3.org/2000/svg">
<path d="M33.7973 31.3425H28.9315L7.05753 3.37534V28.0548L12.537 31.2548V31.3425H0V31.2548L5.47945 28.0548V2.93699L0.0438356 0.745207V0.657534H10.0822L30.0274 26.4767V3.94521L24.5479 0.745207V0.657534H37.0411V0.745207L31.5616 3.94521V28.4493L33.7973 31.3425Z" fill="black"/>
<path d="M40.1113 0.701368V0.657534H55.5414V0.745207L49.5798 3.8137V28.1863L55.5414 31.2548V31.3425H40.1113V31.2548L46.0729 28.1863V3.8137L40.1113 0.701368Z" fill="black"/>
<path d="M92.8298 31.3425H87.964L66.0901 3.37534V28.0548L71.5695 31.2548V31.3425H59.0325V31.2548L64.512 28.0548V2.93699L59.0764 0.745207V0.657534H69.1147L89.0599 26.4767V3.94521L83.5805 0.745207V0.657534H96.0736V0.745207L90.5942 3.94521V28.4493L92.8298 31.3425Z" fill="black"/>
<path d="M115.702 32C106.014 32 98.4305 25.9069 98.4305 16.0877C98.4305 6.4 106.014 0 115.702 0C125.346 0 132.973 6.4 132.973 16.0877C132.973 25.9069 125.389 32 115.702 32ZM102.902 16.0877C102.902 25.2493 107.987 30.6411 115.702 30.6411C123.461 30.6411 128.502 25.2493 128.502 16.0877C128.502 7.10137 123.461 1.31507 115.702 1.31507C107.987 1.31507 102.902 7.10137 102.902 16.0877Z" fill="black"/>
</svg>
