<svg width="142" height="25" viewBox="0 0 142 25" fill="none" xmlns="http://www.w3.org/2000/svg">
<path d="M0.900762 18.6023L1.07399 6.05015C1.07399 1.46044 0.173224 0.13916 0.173224 0.13916H7.55255C15.0704 0.13916 18.6042 1.87769 18.6042 6.46739C18.6042 11.7177 12.6453 13.491 9.49265 13.491C7.41397 13.491 5.33529 13.2476 4.19201 13.1086L4.22665 18.6023C4.22665 23.1572 5.266 24.4785 5.266 24.4785H0C0 24.4785 0.900762 23.1572 0.900762 18.6023ZM4.19201 11.1266C5.78567 11.8916 7.72577 11.9959 9.18085 12.0307C12.576 12.0307 15.2783 10.0835 15.2783 7.33666C15.2783 2.67741 10.9131 1.3909 8.14151 1.3909C6.96359 1.3909 5.61244 1.52998 4.50381 1.80814C4.33059 2.71218 4.15737 4.06823 4.15737 6.05015L4.19201 11.1266Z" fill="black"/>
<path d="M19.0893 20.0279L27.4734 3.12942C26.8498 2.05154 25.8797 1.07796 24.4246 0.208701V0.13916L29.8985 0.173931C30.1757 0.973653 30.5567 1.84292 31.1111 3.05988L38.7675 19.4368C39.4951 20.8972 40.7423 23.192 42.0241 24.4785H35.9267C36.3078 23.5397 35.5802 21.2101 35.0952 19.9584L33.8133 17.0376H22.7617L21.4452 20.0279C21.2373 20.619 20.4751 22.74 20.7523 24.4785H16.5256C17.4264 23.0182 18.4311 21.2101 19.0893 20.0279ZM33.1551 15.5773L29.2402 6.88464L28.2009 4.55502L23.3853 15.5773H33.1551Z" fill="black"/>
<path d="M44.3453 18.6023L44.5186 6.05015C44.5186 1.46044 43.6178 0.13916 43.6178 0.13916H50.9971C59.2079 0.13916 62.7417 1.982 62.7417 6.46739C62.7417 10.9528 58.0993 12.8999 54.3577 13.2476L61.0094 20.7233C61.9449 21.8707 63.3653 23.0182 65.34 24.1656V24.409H60.074C59.2772 23.2268 57.9607 22.0098 57.0599 20.8276L50.5467 13.2129C49.3688 13.1433 48.3295 13.0043 47.6366 12.9347L47.6712 18.6023C47.6712 23.1572 48.7106 24.4785 48.7106 24.4785H43.4446C43.4446 24.4785 44.3453 23.1572 44.3453 18.6023ZM47.6366 10.9528C49.2302 11.7177 51.1703 11.9959 52.6254 12.0307C56.7135 12.0307 59.4158 10.0835 59.4158 6.64125C59.4158 2.81649 55.0506 1.3909 51.5861 1.3909C50.4082 1.3909 49.057 1.52998 47.9484 1.80814C47.7752 2.71218 47.6019 4.06823 47.6019 6.05015L47.6366 10.9528Z" fill="black"/>
<path d="M68.1461 18.6022L68.3193 6.05007C68.3193 1.46036 67.4532 0.139082 67.4186 0.139082L86.0228 0L86.8543 4.76356L86.6118 4.90264C84.4638 1.42559 76.3916 1.5299 71.7838 1.59944C71.5759 2.53825 71.4027 3.92907 71.4027 6.05007L71.4374 11.2309H85.1567V12.6912H71.4374L71.472 18.6022C71.472 23.1572 72.3728 24.4784 72.3728 24.4784H67.2454C67.2454 24.4784 68.1461 23.1572 68.1461 18.6022Z" fill="black"/>
<path d="M94.3029 0.13916C94.3029 0.13916 93.4021 1.46044 93.4021 6.05015L93.4368 13.4563C93.4368 17.3506 94.6147 22.7052 101.474 22.7052C107.503 22.7052 109.443 17.594 109.512 10.6399L109.547 6.05015C109.581 1.46044 108.646 0.13916 108.646 0.13916H112.491C112.491 0.13916 111.591 1.46044 111.591 6.05015L111.625 11.0571C111.625 17.9069 109.685 25.0001 100.435 25.0001C93.4368 25.0001 89.6951 20.3756 89.8337 13.1086L89.9723 6.05015C90.0762 1.46044 89.1062 0.13916 89.0715 0.13916H94.3029Z" fill="black"/>
<path d="M115.601 19.5064L118.234 3.37292C117.645 2.26026 116.952 1.21715 116.016 0.139263H120.832C121.56 2.85136 122.634 5.38961 123.708 7.9974L128.385 19.1935L134.586 3.40769C134.205 2.05164 133.754 0.869443 133.235 0.139263L138.016 0.104492C138.05 2.22549 138.154 3.96402 138.397 5.80686L139.159 10.6747L139.332 11.6483H139.298L140.094 16.5857C140.476 18.4286 140.891 21.1407 142 24.4786H137.184C137.531 22.8792 137.219 19.263 136.942 17.7331L136.976 17.6984L135.452 7.47584L135.175 5.98071L128.177 24.4439H127.172L119.204 5.38961L117.645 19.3674C117.541 20.5148 117.402 23.1226 117.679 24.4786H114.215C114.631 23.7484 115.254 21.1059 115.601 19.5064Z" fill="black"/>
</svg>
